<?xml version="1.0" encoding="utf-8"?><!-- Uploaded to: SVG Repo, www.svgrepo.com, Generator: SVG Repo Mixer Tools -->
<svg fill="#000000" width="800px" height="800px" viewBox="0 0 24 24" xmlns="http://www.w3.org/2000/svg"><path d="M 20 7 h -3 V 4 c 0 -1.103 -0.897 -2 -2 -2 H 9 c -1.103 0 -2 0.897 -2 2 v 3 H 4 c -1.103 0 -2 0.897 -2 2 v 6 c 0 1.103 0.897 2 2 2 h 3 v 3 c 0 1.103 0.897 2 2 2 h 6 c 1.103 0 2 -0.897 2 -2 v -3 h 3 c 1.103 0 2 -0.897 2 -2 V 9 c 0 -1.103 -0.897 -2 -2 -2 z m 0 9 h -4 v 4 h 0.001 v 1 H 8 v -5 H 3 V 8 h 5 V 3 h 8 v 5 h 5 v 8 z"/><path d="M8 14v-4l-3 2zm8 0 3-2-3-2zm-6-6h4l-2-3zm2 11 2-3h-4z"/><circle cx="12" cy="12" r="2"/></svg>