<?xml version="1.0" encoding="utf-8"?><!-- Uploaded to: SVG Repo, www.svgrepo.com, Generator: SVG Repo Mixer Tools -->
<svg width="800px" height="800px" viewBox="0 -2 153 153" fill="none" xmlns="http://www.w3.org/2000/svg">
<path d="M152.307 102.477C151.567 90.7833 150.403 65.1442 151.302 51.8081C151.621 47.066 151.533 42.2255 151.448 37.5406L151.431 36.5279C151.407 29.2181 150.2 21.9605 147.855 15.0367C145.438 8.13796 140.746 3.94459 133.912 2.57087C129.63 1.6801 125.285 1.12973 120.916 0.924818C112.754 0.592055 104.452 0.406975 96.4222 0.227138C93.1637 0.154941 89.9052 0.0791981 86.6467 0L86.3232 0.0931788L83.5167 0.101752C81.4396 0.101752 79.3612 0.101752 77.2815 0.101752L73.8573 0.0958228C60.3571 0.0728509 46.3935 0.0407346 32.7706 2.1758C28.0298 2.91878 22.4936 3.95579 17.3703 6.01472C7.1524 10.1214 1.63851 17.6922 0.982174 28.5166C0.55621 35.5394 0.878468 42.618 1.19088 49.4623C1.25127 50.7828 1.30946 52.1034 1.36546 53.4239C1.55055 57.843 1.7442 64.0914 1.94897 70.706C2.2627 80.8221 2.6184 92.2883 3.01024 99.1648C3.40404 106.103 3.97114 115.23 4.82766 124.303C6.06552 137.413 16.6174 146.902 30.4905 147.379C40.8383 147.735 51.362 147.884 61.5444 148.028H61.6442C64.5517 148.069 67.5079 148.044 70.365 148.02C75.067 147.979 79.9291 147.939 84.6915 148.191C87.5794 148.344 90.5146 148.421 93.5521 148.421C102.973 148.348 112.382 147.755 121.736 146.643C131.34 145.582 138.563 142.762 144.467 137.771C149.303 133.682 151.66 128.946 151.672 123.29C151.677 121.436 151.714 119.557 151.784 117.705C151.845 116.073 151.956 114.408 152.065 112.799C152.368 109.367 152.449 105.919 152.307 102.477ZM134.876 136.584L134.726 136.666C130.5 138.985 125.842 139.788 121.433 140.412C106.896 142.47 92.4534 142.363 78.9079 142.079C71.5477 141.925 64.0635 141.824 56.826 141.726C50.4851 141.641 43.929 141.553 37.4818 141.429C34.4855 141.393 31.4961 141.137 28.5372 140.664C17.7989 138.875 11.8597 131.896 11.3628 120.483C11.0005 112.181 10.6658 100.57 10.3422 89.3421C10.0423 78.947 9.73246 68.1981 9.40889 60.4382C9.3065 57.9769 9.16539 55.477 9.02952 53.0591C8.81621 49.2661 8.59566 45.3431 8.51756 41.4852C8.42502 36.9105 8.67836 32.236 8.94484 27.8405C9.34192 21.3139 13.129 16.6828 20.2023 14.0719C24.4795 12.5701 28.9005 11.5144 33.3948 10.9215C45.3979 9.13098 57.6458 8.82843 69.6857 8.82843C72.7842 8.82843 75.869 8.84808 78.9322 8.86777L80.909 8.88091C81.6842 8.88616 82.4587 8.88419 83.2325 8.88091H84.6593L84.6653 8.62365C87.9789 8.70853 91.2936 8.79119 94.6094 8.8717C104.202 9.10798 114.122 9.3522 123.876 9.67249C126.405 9.8254 128.918 10.1743 131.393 10.716L131.819 10.7981C136.047 11.606 138.875 14.215 140.224 18.5514C142.228 25.1822 143.23 32.0748 143.198 39.0015C143.22 42.1553 143.175 45.3681 143.132 48.4686C143.075 52.6108 143.015 56.8927 143.111 61.1044L143.154 62.9474C143.356 71.7594 143.776 90.0955 144.278 97.814C144.773 105.428 145.075 115.47 142.994 125.603L142.973 125.678C142.936 125.781 142.92 125.891 142.926 126.001C143.423 131.895 139.271 134.172 134.876 136.584Z" fill="#000000"/>

</svg>